<?xml version="1.0" standalone="no"?>
<!DOCTYPE svg PUBLIC "-//W3C//DTD SVG 20010904//EN"
 "http://www.w3.org/TR/2001/REC-SVG-20010904/DTD/svg10.dtd">
<svg version="1.0" xmlns="http://www.w3.org/2000/svg"
 width="500.000000pt" height="500.000000pt" viewBox="0 0 500.000000 500.000000"
 preserveAspectRatio="xMidYMid meet">

<g transform="translate(0.000000,500.000000) scale(0.100000,-0.100000)"
fill="#000000" stroke="none">
<path d="M0 2500 l0 -2500 42 0 c24 0 49 7 59 16 12 10 48 19 106 24 54 5 114
18 156 34 73 28 126 33 145 14 9 -9 20 -9 45 -1 54 18 108 25 199 24 48 0 90
4 93 9 3 5 26 12 50 16 25 3 49 12 53 19 4 7 21 16 39 19 25 6 36 3 50 -13 9
-12 21 -21 24 -21 8 0 53 71 54 84 0 5 12 22 27 38 20 22 35 28 66 28 22 0 56
7 77 16 35 14 38 14 54 -5 10 -12 26 -45 35 -73 9 -29 36 -91 59 -138 l43 -85
837 -3 837 -2 6 27 c12 55 16 63 29 63 17 0 35 31 35 59 0 33 20 67 52 85 16
10 28 23 26 29 -2 7 11 26 29 44 29 28 34 29 43 15 9 -14 10 -13 5 6 -4 13 -2
22 4 22 18 0 51 -34 51 -52 0 -10 7 -18 15 -18 18 0 20 -27 2 -33 -6 -2 -9 -8
-5 -12 5 -5 16 -1 26 8 21 19 73 22 105 6 12 -6 36 -24 52 -40 42 -39 129 -79
280 -129 72 -24 149 -51 173 -62 39 -17 77 -18 482 -18 l440 0 0 2500 0 2500
-2500 0 -2500 0 0 -2500z m2990 1672 c52 -11 219 -71 269 -97 48 -24 191 -170
191 -194 0 -4 11 -19 24 -32 13 -13 29 -42 36 -64 7 -22 21 -59 31 -83 25 -56
38 -169 19 -157 -9 5 -11 4 -6 -4 9 -14 9 -148 0 -201 -3 -19 -5 -46 -5 -59 1
-27 -17 -54 -30 -45 -13 7 -10 -24 4 -66 14 -39 11 -74 -5 -64 -5 3 -3 -7 5
-22 8 -16 20 -58 26 -94 9 -44 20 -71 34 -83 12 -10 15 -15 7 -11 -10 5 -8 0
4 -15 19 -20 27 -65 26 -139 0 -18 2 -38 6 -44 4 -6 8 -38 10 -72 1 -34 5 -74
9 -91 11 -55 13 -209 3 -280 -6 -38 -11 -89 -12 -112 -1 -46 -4 -50 -25 -30
-8 7 -11 7 -8 1 4 -7 1 -17 -7 -23 -8 -7 -17 -23 -20 -36 -4 -14 -11 -25 -16
-25 -6 0 -10 -7 -10 -15 0 -8 -5 -15 -11 -15 -7 0 -8 -7 -4 -17 4 -10 9 -24
12 -30 3 -8 -2 -13 -12 -13 -9 0 -14 -4 -11 -9 3 -5 -1 -14 -9 -21 -8 -7 -15
-9 -15 -6 0 4 -13 -1 -30 -11 -16 -9 -30 -21 -30 -26 0 -5 -6 -7 -14 -4 -8 3
-22 -1 -33 -9 -10 -9 -12 -13 -5 -9 6 3 12 1 12 -4 0 -14 -3 -14 -44 6 -20 9
-32 21 -29 27 3 6 3 8 -2 4 -4 -4 -15 -3 -24 2 -10 5 -23 5 -31 0 -8 -5 -19
-5 -25 -1 -5 5 -20 11 -33 14 -19 4 -21 3 -11 -9 8 -10 9 -14 0 -14 -6 0 -14
6 -17 14 -3 8 -14 11 -28 9 -13 -3 -27 0 -30 6 -4 6 -16 11 -28 11 -16 0 -19
5 -15 26 3 18 1 22 -6 15 -16 -16 -30 -14 -24 3 4 9 0 13 -11 12 -20 -3 -46
20 -37 34 4 6 3 9 -2 8 -14 -4 -53 22 -53 35 0 7 -10 17 -22 22 -15 6 -23 18
-22 33 0 17 -4 21 -17 17 -9 -3 -19 1 -22 9 -4 11 -13 12 -46 3 l-40 -11 20
-27 c10 -15 19 -34 19 -42 0 -7 7 -28 16 -45 9 -19 14 -50 12 -79 l-3 -48 -45
-1 c-27 -1 -58 6 -80 19 -46 26 -87 28 -130 6 -46 -24 -141 -20 -170 6 -11 10
-20 14 -20 10 0 -5 -12 3 -27 17 -43 41 -77 45 -107 14 -15 -14 -26 -20 -27
-13 0 9 -2 9 -6 0 -3 -10 -11 -9 -34 2 -16 9 -30 20 -30 25 -1 6 -2 16 -3 23
-5 32 52 91 89 92 16 0 21 10 28 53 6 35 15 55 28 62 10 6 19 16 19 23 0 7 9
18 21 25 12 8 18 19 15 28 -3 8 -1 14 5 14 10 0 6 100 -5 118 -9 15 30 146 56
187 13 22 27 48 31 58 3 9 11 17 17 17 6 0 8 -4 5 -10 -10 -15 18 -12 43 6 22
15 42 12 42 -8 0 -6 8 -17 18 -24 9 -7 17 -16 18 -21 0 -4 10 -30 22 -56 12
-27 22 -52 22 -57 0 -4 25 -42 55 -85 30 -42 55 -79 55 -83 0 -4 14 -13 30
-20 17 -8 28 -18 25 -22 -3 -5 0 -12 6 -16 8 -4 7 -9 -2 -15 -10 -6 -9 -10 5
-15 10 -4 27 -2 37 5 24 14 25 3 2 -14 -14 -10 -15 -16 -5 -27 6 -8 9 -18 5
-22 -4 -4 0 -4 10 0 9 3 14 11 11 16 -4 6 2 7 16 3 15 -5 25 -2 31 6 7 11 9 9
9 -6 0 -17 2 -17 10 -5 6 10 10 11 10 3 0 -9 12 -12 35 -10 19 1 35 5 35 9 0
4 17 8 38 7 105 0 116 2 129 21 8 11 18 18 23 15 8 -5 24 12 60 64 9 14 22 19
37 16 13 -2 21 0 18 6 -4 5 7 17 24 27 23 12 29 22 25 36 -4 13 -3 16 7 11 9
-6 11 -3 6 8 -5 12 1 19 18 23 14 3 23 9 20 14 -2 4 5 16 15 28 11 12 20 26
20 32 0 5 8 10 18 10 22 0 102 74 102 95 0 9 -6 22 -13 30 -8 7 -15 37 -16 65
-1 29 -6 61 -12 72 -9 17 -8 19 10 13 15 -5 21 -2 21 10 0 11 -6 15 -18 11
-14 -5 -21 2 -30 27 -15 41 -15 47 -1 47 5 0 7 -4 4 -10 -3 -5 2 -10 12 -11
11 0 13 -3 5 -6 -10 -4 -10 -8 -1 -19 6 -8 15 -14 19 -14 14 0 21 33 9 40 -6
4 -12 19 -12 34 -1 14 -8 26 -14 26 -7 0 -13 5 -13 12 0 19 -42 58 -62 58 -11
0 -17 4 -13 9 3 6 -14 8 -40 7 -27 -2 -40 1 -33 6 15 9 -88 4 -117 -7 -19 -6
-19 -6 -2 8 24 20 21 26 -13 25 -16 -1 -27 -5 -24 -10 3 -4 1 -8 -4 -8 -6 0
-12 7 -16 15 -3 9 -12 12 -22 8 -13 -5 -15 -3 -9 8 7 11 6 12 -6 2 -16 -13
-26 -14 -55 -3 -11 5 -27 4 -35 0 -8 -6 -16 -4 -21 3 -5 8 -8 6 -8 -7 0 -12
-5 -16 -16 -12 -9 3 -27 9 -40 12 -13 3 -24 10 -24 15 0 5 -7 9 -16 9 -8 0
-13 4 -10 9 3 5 -1 12 -10 15 -10 4 -13 2 -8 -6 5 -7 0 -9 -13 -6 -11 3 -27 1
-36 -3 -10 -6 -21 -4 -31 7 -15 14 -16 14 -16 -4 0 -15 -5 -18 -25 -14 -15 2
-22 9 -18 16 3 6 -3 3 -14 -6 -11 -10 -24 -18 -30 -18 -6 0 -13 -6 -16 -12 -3
-10 -7 -10 -18 -1 -8 7 -28 10 -44 8 -17 -2 -33 -4 -37 -4 -5 -1 -8 -8 -8 -17
0 -12 -4 -14 -12 -7 -22 17 -60 23 -55 9 3 -7 -4 -18 -14 -24 -11 -7 -19 -8
-19 -2 0 6 -9 6 -25 0 -19 -7 -23 -6 -18 5 3 8 1 15 -5 15 -5 0 -12 -6 -15
-14 -5 -12 -13 -12 -48 -2 -23 7 -47 20 -53 28 -9 12 -17 13 -29 7 -12 -7 -17
-6 -17 2 0 7 -7 4 -16 -7 -15 -18 -15 -18 -11 9 2 15 0 30 -6 34 -5 3 -7 1 -3
-5 3 -6 1 -14 -5 -18 -6 -3 -15 -1 -19 6 -4 6 -10 11 -14 11 -19 -3 -27 0 -21
9 3 5 -6 12 -20 16 -14 4 -24 12 -22 18 3 7 -7 13 -26 14 -17 2 -35 6 -41 11
-6 4 -23 11 -38 15 -20 5 -28 2 -31 -11 -4 -14 -5 -13 -6 4 -1 29 -16 37 -31
17 -11 -12 -15 -12 -21 -2 -7 11 -9 11 -9 0 0 -7 -4 -11 -9 -8 -5 3 -7 16 -4
29 4 21 3 21 -11 -3 -9 -16 -11 -27 -4 -31 7 -4 6 -9 -1 -13 -6 -4 -11 -2 -11
3 0 6 -7 11 -15 11 -8 0 -15 -5 -15 -11 0 -8 -4 -8 -14 0 -10 9 -15 8 -20 -4
-7 -20 -18 -19 -42 3 -17 17 -20 17 -34 2 -8 -9 -12 -11 -9 -5 3 5 9 20 12 33
4 17 1 22 -14 22 -10 0 -19 5 -19 11 0 5 5 7 10 4 6 -3 10 -1 10 4 0 6 -4 11
-10 11 -18 0 -10 19 11 25 16 5 19 12 15 30 -7 28 19 42 43 23 14 -12 14 -11
2 5 -14 17 -10 21 23 17 11 -1 16 3 14 12 -3 7 -12 12 -22 10 -9 -2 -16 2 -16
8 0 5 5 9 11 7 6 -1 14 4 16 11 3 8 -2 10 -14 6 -13 -4 -10 1 9 19 15 14 33
27 40 30 11 4 10 7 -1 18 -9 9 -15 10 -17 3 -7 -16 -62 -4 -67 15 -2 10 -8 3
-14 -19 -6 -19 -12 -29 -12 -21 -1 8 -9 20 -18 27 -12 9 -14 14 -5 15 15 2 30
6 37 9 6 3 12 5 43 15 12 4 22 11 22 17 0 5 9 4 20 -2 17 -9 20 -8 20 12 0 14
-3 18 -8 11 -5 -8 -15 -3 -31 18 -13 16 -27 26 -32 23 -5 -3 -9 1 -9 8 0 7 -8
-2 -16 -19 -9 -18 -20 -30 -25 -27 -5 3 -9 1 -9 -5 0 -5 -9 -13 -20 -16 -11
-4 -18 -11 -15 -16 8 -12 5 -11 -34 2 -34 12 -37 18 -18 38 6 8 7 11 2 8 -6
-3 -17 -2 -25 4 -13 7 -13 9 0 9 9 1 6 5 -7 10 -18 7 -25 33 -13 48 4 4 7 22
9 43 0 11 6 17 11 14 5 -3 10 -1 10 4 0 6 6 10 13 8 6 -1 11 6 11 16 -1 9 2
17 6 17 11 0 88 79 83 84 -3 2 5 10 18 16 12 7 32 23 43 35 46 49 215 141 370
200 38 15 77 31 85 35 108 53 237 82 373 84 65 1 121 6 125 10 9 9 115 2 183
-12z m-1237 -739 c-5 -12 -7 -12 -14 -1 -13 20 -11 28 5 22 8 -3 12 -12 9 -21z
m26 -98 c-8 -7 -13 -6 -16 3 -3 6 -11 12 -19 12 -8 0 -14 4 -14 9 0 5 13 4 30
-2 21 -8 27 -14 19 -22z m1 -61 c0 -11 -5 -10 -18 4 -11 9 -17 21 -15 25 7 11
33 -13 33 -29z m233 -109 c-3 -9 -8 -14 -10 -11 -3 3 -2 9 2 15 9 16 15 13 8
-4z m177 -69 c0 -3 -4 -8 -10 -11 -5 -3 -10 -1 -10 4 0 6 5 11 10 11 6 0 10
-2 10 -4z m-458 -31 c3 3 11 -2 18 -10 10 -12 10 -19 2 -27 -9 -9 -12 -9 -12
-1 0 7 -9 11 -20 10 -11 -1 -20 -4 -20 -7 0 -3 -11 -7 -25 -8 -32 -2 -32 6 3
38 22 21 29 24 38 13 6 -7 13 -10 16 -8z m1063 -13 c-3 -3 -11 0 -18 7 -9 10
-8 11 6 5 10 -3 15 -9 12 -12z m375 -26 c0 -2 -7 -7 -16 -10 -8 -3 -12 -2 -9
4 6 10 25 14 25 6z m-1460 -26 c8 -5 11 -10 5 -10 -5 0 -17 5 -25 10 -8 5 -10
10 -5 10 6 0 17 -5 25 -10z m1771 -32 c8 -7 22 -22 29 -33 14 -18 14 -18 -15
1 -16 12 -39 26 -50 32 -20 11 -20 11 1 12 11 0 27 -6 35 -12z m-974 -300 c-3
-8 -6 -5 -6 6 -1 11 2 17 5 13 3 -3 4 -12 1 -19z m1309 -39 c8 -6 14 -15 14
-20 0 -12 -88 -55 -96 -47 -3 3 -2 26 1 51 7 44 7 45 37 36 16 -4 36 -13 44
-20z m-926 -409 c0 -5 -8 -10 -17 -10 -15 0 -16 2 -3 10 19 12 20 12 20 0z
m890 -100 c0 -29 -26 -76 -45 -84 -56 -21 -65 13 -18 64 41 44 63 51 63 20z
m-450 -275 c0 -2 -8 -3 -18 -2 -10 0 -19 7 -19 13 0 9 5 10 19 3 10 -5 18 -12
18 -14z m-370 -90 c16 -27 37 -59 47 -70 10 -11 18 -27 18 -35 0 -8 6 -14 13
-12 8 1 11 -2 7 -8 -3 -6 -11 -8 -16 -5 -5 3 -6 -1 -3 -9 4 -10 1 -16 -9 -16
-8 0 -17 -13 -21 -32 -5 -25 -9 -29 -16 -18 -5 8 -6 18 -4 22 3 4 -2 8 -11 8
-9 0 -13 -4 -10 -10 3 -5 1 -10 -4 -10 -6 0 -11 7 -11 16 0 8 -5 12 -10 9 -6
-4 -17 -1 -25 5 -12 10 -15 9 -16 -6 -1 -11 0 -23 1 -29 1 -5 -2 -6 -7 -2 -4
5 -8 16 -8 25 0 9 -15 25 -34 36 -19 11 -31 15 -27 8 4 -7 3 -12 -1 -12 -14 0
-31 56 -26 87 8 45 43 111 70 133 l26 20 24 -22 c13 -12 37 -45 53 -73z m-420
75 c0 -5 -2 -10 -4 -10 -3 0 -8 5 -11 10 -3 6 -1 10 4 10 6 0 11 -4 11 -10z
m374 -295 c3 -8 1 -15 -4 -15 -6 0 -10 7 -10 15 0 8 2 15 4 15 2 0 6 -7 10
-15z m271 5 c4 -6 -6 -10 -22 -9 -25 0 -26 1 -8 9 11 5 21 9 22 9 1 1 5 -3 8
-9z m2 -26 c-3 -3 -12 -4 -19 -1 -8 3 -5 6 6 6 11 1 17 -2 13 -5z m-291 -596
c-4 6 -2 12 3 12 6 0 11 -4 11 -10 0 -20 2 -25 13 -40 6 -8 1 -6 -12 5 l-23
20 5 -37 c3 -21 1 -36 -3 -33 -4 3 -14 -3 -21 -12 -10 -12 -10 -14 -1 -9 6 4
12 2 12 -3 0 -6 -4 -11 -10 -11 -5 0 -6 -7 -3 -17 4 -11 3 -14 -6 -9 -7 5 -10
13 -8 20 2 6 1 20 -4 31 -6 17 -8 17 -8 3 -1 -10 -5 -18 -11 -18 -5 0 -10 -3
-9 -7 1 -5 -2 -17 -6 -28 -7 -22 -47 -27 -74 -11 -11 7 -13 5 -8 -8 5 -14 3
-15 -13 -6 -22 12 -40 13 -39 3 1 -5 1 -17 0 -28 -1 -17 -3 -18 -11 -5 -9 13
-10 13 -10 0 0 -9 -9 -2 -20 15 -17 26 -20 27 -26 10 -7 -17 -8 -16 -16 6 -6
14 -12 19 -16 12 -4 -6 -16 -13 -27 -16 -15 -3 -12 -5 10 -7 17 -1 24 -4 17
-7 -6 -2 -10 -9 -7 -13 3 -5 1 -11 -4 -15 -11 -6 -35 31 -37 58 -1 9 3 17 8
17 4 0 12 11 17 23 5 13 16 24 25 24 8 0 13 -4 10 -9 -11 -17 17 -7 34 13 19
23 60 43 80 40 7 -1 26 8 43 20 29 20 104 35 93 18 -2 -4 1 -11 8 -15 7 -4 10
-4 6 1 -4 4 -3 14 3 22 10 11 15 11 27 1 13 -10 14 -10 8 0z m-56 -138 c0 -5
-5 -10 -11 -10 -5 0 -7 5 -4 10 3 6 8 10 11 10 2 0 4 -4 4 -10z m-45 -88 c-3
-3 -11 0 -18 7 -9 10 -8 11 6 5 10 -3 15 -9 12 -12z"/>
<path d="M1801 3574 c0 -11 3 -14 6 -6 3 7 2 16 -1 19 -3 4 -6 -2 -5 -13z"/>
<path d="M1722 3533 c-6 -2 -10 -8 -7 -13 6 -10 45 -1 45 11 0 10 -17 11 -38
2z"/>
<path d="M1840 3149 c0 -5 5 -7 10 -4 6 3 10 8 10 11 0 2 -4 4 -10 4 -5 0 -10
-5 -10 -11z"/>
<path d="M3395 3040 c3 -5 11 -10 16 -10 6 0 7 5 4 10 -3 6 -11 10 -16 10 -6
0 -7 -4 -4 -10z"/>
<path d="M2687 863 c-4 -3 -7 -11 -7 -17 0 -6 5 -5 12 2 6 6 9 14 7 17 -3 3
-9 2 -12 -2z"/>
<path d="M3470 156 c0 -2 7 -6 15 -10 8 -3 15 -1 15 4 0 6 -7 10 -15 10 -8 0
-15 -2 -15 -4z"/>
<path d="M3465 90 c-3 -5 1 -10 10 -10 9 0 13 5 10 10 -3 6 -8 10 -10 10 -2 0
-7 -4 -10 -10z"/>
<path d="M3445 20 c-3 -5 1 -10 9 -10 9 0 16 5 16 10 0 6 -4 10 -9 10 -6 0
-13 -4 -16 -10z"/>
</g>
</svg>
