<?xml version="1.0" encoding="UTF-8"?>
<svg id="svg8" version="1.1" viewBox="0 0 24 24" xmlns="http://www.w3.org/2000/svg">
 <g id="g2090" transform="matrix(3.8637 0 0 3.7996 -41.156 -1064.2)" shape-rendering="auto" stroke-width=".26099">
  <path id="path1837" transform="matrix(.25882 0 0 .26318 .2995 290.61)" d="m51.998-38.551-0.33203 0.28125s-4.0586 3.3816-4.0586 7.7773c-3e-6 0.70644 0.0659 1.5946 0.16016 2.502l-0.12305 0.07422-2.7695 1.6836v2.9609h4.6777v1.8633h0.65625c-0.09072 0.3268-0.14258 0.67886-0.14258 1.0527 0 1.6321 1.6387 2.6953 1.6387 2.6953l0.29297 0.21484 0.30273-0.21484s1.6367-1.0633 1.6367-2.6953c0-0.37387-0.05371-0.72593-0.14648-1.0527h0.65234v-1.9082h0.67188v0.0078h4.0078v-2.9238l-2.7695-1.6836-0.12305-0.07422c0.09425-0.90733 0.16016-1.7955 0.16016-2.502 4e-6 -4.3957-4.0605-7.7773-4.0605-7.7773zm-0.50586 5.5273h1.0117v0.76563h1.2539v0.99414h-2.5059v0.75781h2.5059v2.7441h-1.2539v0.76562h-1.0117v-0.76562h-1.252v-0.99414h2.5137v-0.76367h-2.5137v-2.7383h1.252v-0.26758zm4.6172 6.1191 2.0098 1.2285v1.373h-2.5508c0.22912-0.71393 0.40024-1.6012 0.53516-2.5449 0.0027-0.01888 0.0032-0.03773 0.0059-0.05664zm-8.2227 0.0059c0.0024 0.01697 0.0034 0.03383 0.0059 0.05078 0.1371 0.95895 0.31012 1.8624 0.54492 2.582h-2.5508v-1.4102zm2.6777 3.582h2.8672v0.92188h-2.8672z" color="#000000" color-rendering="auto" dominant-baseline="auto" image-rendering="auto" solid-color="#000000" stop-color="#000000" style="font-feature-settings:normal;font-variant-alternates:normal;font-variant-caps:normal;font-variant-east-asian:normal;font-variant-ligatures:normal;font-variant-numeric:normal;font-variant-position:normal;font-variation-settings:normal;inline-size:0;isolation:auto;mix-blend-mode:normal;paint-order:fill markers stroke;shape-margin:0;shape-padding:0;text-decoration-color:#000000;text-decoration-line:none;text-decoration-style:solid;text-indent:0;text-orientation:mixed;text-transform:none;white-space:normal"/>
  <path id="path2016" d="m11.775 284.83v0.79101h0.26172v-0.79101z" color="#000000" color-rendering="auto" dominant-baseline="auto" image-rendering="auto" solid-color="#000000" stop-color="#000000" style="font-feature-settings:normal;font-variant-alternates:normal;font-variant-caps:normal;font-variant-east-asian:normal;font-variant-ligatures:normal;font-variant-numeric:normal;font-variant-position:normal;font-variation-settings:normal;inline-size:0;isolation:auto;mix-blend-mode:normal;shape-margin:0;shape-padding:0;text-decoration-color:#000000;text-decoration-line:none;text-decoration-style:solid;text-indent:0;text-orientation:mixed;text-transform:none;white-space:normal"/>
  <path id="path2018" d="m12.438 284.83v0.79101h0.25977v-0.79101z" color="#000000" color-rendering="auto" dominant-baseline="auto" image-rendering="auto" solid-color="#000000" stop-color="#000000" style="font-feature-settings:normal;font-variant-alternates:normal;font-variant-caps:normal;font-variant-east-asian:normal;font-variant-ligatures:normal;font-variant-numeric:normal;font-variant-position:normal;font-variation-settings:normal;inline-size:0;isolation:auto;mix-blend-mode:normal;shape-margin:0;shape-padding:0;text-decoration-color:#000000;text-decoration-line:none;text-decoration-style:solid;text-indent:0;text-orientation:mixed;text-transform:none;white-space:normal"/>
  <path id="path2024" d="m14.818 284.83v0.79101h0.26172v-0.79101z" color="#000000" color-rendering="auto" dominant-baseline="auto" image-rendering="auto" solid-color="#000000" stop-color="#000000" style="font-feature-settings:normal;font-variant-alternates:normal;font-variant-caps:normal;font-variant-east-asian:normal;font-variant-ligatures:normal;font-variant-numeric:normal;font-variant-position:normal;font-variation-settings:normal;inline-size:0;isolation:auto;mix-blend-mode:normal;shape-margin:0;shape-padding:0;text-decoration-color:#000000;text-decoration-line:none;text-decoration-style:solid;text-indent:0;text-orientation:mixed;text-transform:none;white-space:normal"/>
  <path id="path2026" d="m15.48 284.83v0.79101h0.25976v-0.79101z" color="#000000" color-rendering="auto" dominant-baseline="auto" image-rendering="auto" solid-color="#000000" stop-color="#000000" style="font-feature-settings:normal;font-variant-alternates:normal;font-variant-caps:normal;font-variant-east-asian:normal;font-variant-ligatures:normal;font-variant-numeric:normal;font-variant-position:normal;font-variation-settings:normal;inline-size:0;isolation:auto;mix-blend-mode:normal;shape-margin:0;shape-padding:0;text-decoration-color:#000000;text-decoration-line:none;text-decoration-style:solid;text-indent:0;text-orientation:mixed;text-transform:none;white-space:normal"/>
 </g>
</svg>
